<?xml version="1.0" encoding="UTF-8" standalone="no"?>
<!-- Created with Inkscape (http://www.inkscape.org/) -->

<svg
   width="210mm"
   height="297mm"
   viewBox="0 0 210 297"
   version="1.1"
   id="svg505"
   inkscape:version="1.2.2 (b0a8486541, 2022-12-01)"
   sodipodi:docname="palanca.svg"
   xmlns:inkscape="http://www.inkscape.org/namespaces/inkscape"
   xmlns:sodipodi="http://sodipodi.sourceforge.net/DTD/sodipodi-0.dtd"
   xmlns="http://www.w3.org/2000/svg"
   xmlns:svg="http://www.w3.org/2000/svg">
  <sodipodi:namedview
     id="namedview507"
     pagecolor="#505050"
     bordercolor="#ffffff"
     borderopacity="1"
     inkscape:showpageshadow="0"
     inkscape:pageopacity="0"
     inkscape:pagecheckerboard="1"
     inkscape:deskcolor="#505050"
     inkscape:document-units="mm"
     showgrid="false"
     inkscape:zoom="0.914906"
     inkscape:cx="396.76207"
     inkscape:cy="562.35285"
     inkscape:window-width="3440"
     inkscape:window-height="1440"
     inkscape:window-x="0"
     inkscape:window-y="0"
     inkscape:window-maximized="1"
     inkscape:current-layer="g358" />
  <defs
     id="defs502" />
  <g
     inkscape:label="Capa 1"
     inkscape:groupmode="layer"
     id="layer1">
    <g
       id="g358"
       transform="translate(4.6449543,5.747793)">
      <g
         id="g665">
        <path
           style="fill:#c66fcd;stroke-width:0.254859"
           d="M 25.462372,157.56257 C 11.078393,151.70823 -1.8009389,146.46285 -3.1583574,145.90616 l -2.468043,-1.01218 0.309339,-0.68908 c 0.354208,-0.789 -0.833468,-0.13777 27.6620264,-15.16766 9.591979,-5.05927 17.871505,-9.45164 18.398946,-9.76082 0.740997,-0.43437 0.933608,-0.6856 0.847346,-1.10521 -0.0614,-0.29867 -2.797666,-11.0947 -6.080592,-23.991167 C 29.841503,71.909613 29.5597,70.688108 29.899935,69.85969 l 0.358226,-0.872228 0.643293,0.302019 c 0.353811,0.16611 12.373863,5.062692 26.711227,10.881294 14.337361,5.818599 26.618904,10.804016 27.292318,11.078704 l 1.224384,0.499429 -0.587389,1.658226 c -0.323064,0.912021 -1.495281,4.078574 -2.604926,7.036776 l -2.017538,5.37856 -0.845714,-0.29581 -0.845712,-0.2958 0.508772,-2.07341 C 81.251787,96.983739 79.22759,93.031116 73.230184,90.451935 72.077281,89.95613 66.503655,87.667178 60.84435,85.365376 c -5.659307,-2.3018 -12.491101,-5.100874 -15.181766,-6.220167 -2.690666,-1.119288 -4.910517,-1.989787 -4.933004,-1.93444 -0.03423,0.08424 3.363588,14.145488 4.798135,19.856237 1.283992,5.111414 5.13117,20.987974 5.098899,21.042184 -0.05211,0.0876 -4.994107,2.73163 -25.712107,13.75665 -9.815691,5.22339 -17.8657667,9.54399 -17.8890644,9.60133 -0.023298,0.0573 8.3721504,3.52185 18.6565514,7.6989 19.218697,7.80576 20.76243,8.33687 24.720825,8.50488 3.313863,0.14064 6.14507,-1.21571 9.176946,-4.3964 0.704735,-0.73933 1.367222,-1.38029 1.472197,-1.42436 0.104973,-0.0441 0.493429,0.0982 0.863238,0.31611 l 0.672385,0.39624 -4.036145,5.88775 c -2.219881,3.23825 -4.585447,6.71487 -5.256818,7.7258 -0.671373,1.01093 -1.323924,1.88141 -1.450117,1.93438 -0.126193,0.053 -11.998151,-4.69357 -26.382133,-10.5479 z"
           id="path280" />
        <path
           style="fill:#6bc3d1;stroke-width:0.225819"
           d="m 174.86819,249.70545 c -4.98845,-0.60387 -9.71255,-2.69033 -13.60907,-6.01064 -3.46746,-2.95469 -6.39623,-6.31311 -10.66448,-12.22897 l -2.0552,-2.84853 -0.60988,0.88303 c -2.38259,3.44965 -3.26602,4.61987 -4.72771,6.26229 -2.30576,2.59088 -3.68292,3.82643 -5.9981,5.38134 -3.25085,2.18332 -6.81145,3.55886 -11.31106,4.36971 -2.8217,0.50848 -9.35588,0.50612 -12.22321,-0.006 -9.26408,-1.64947 -16.946349,-6.77928 -20.984179,-14.0121 -2.149943,-3.85111 -3.047937,-7.65535 -3.04667,-12.90682 0.0019,-9.01705 2.908176,-15.38651 9.508498,-20.841 3.240171,-2.67768 6.932251,-4.52172 11.144681,-5.56633 1.78085,-0.44161 2.42527,-0.4877 6.65482,-0.47591 4.37987,0.0122 4.82582,0.0497 6.88912,0.58008 4.3509,1.11827 7.50769,2.85322 10.52909,5.78674 1.93779,1.88142 4.99805,5.61565 6.86171,8.37287 0.71575,1.05893 1.37812,1.8503 1.47197,1.75861 0.0938,-0.0917 0.4219,-0.67876 0.72903,-1.30461 0.79652,-1.62315 3.25866,-5.35659 5.05074,-7.65867 5.6651,-7.2773 12.14844,-10.41821 23.06382,-11.17348 9.27325,-0.64166 17.00202,1.09481 23.69473,5.32361 7.27473,4.59656 11.95766,11.38319 13.39304,19.40959 1.74711,9.76947 -0.67797,19.26015 -6.63456,25.96473 -1.94891,2.19363 -6.3464,5.78435 -8.67641,7.08459 -2.19796,1.22655 -5.14728,2.46599 -7.23612,3.04095 -3.27752,0.90216 -7.78209,1.22883 -11.2146,0.81332 z m 10.21797,-7.21088 c 2.78921,-0.58317 6.10139,-1.93578 8.55615,-3.4941 5.35715,-3.40081 8.69858,-8.21382 10.09739,-14.54433 0.58662,-2.65484 0.5887,-8.44709 0.004,-11.09161 -1.24351,-5.62405 -4.24324,-10.35473 -8.96931,-14.1449 -3.3433,-2.68125 -7.06473,-4.47841 -10.90983,-5.26861 -2.47006,-0.50761 -7.09622,-0.50257 -9.4627,0.0103 -4.77692,1.03531 -8.6546,3.48707 -11.95712,7.56021 -2.77018,3.41657 -3.58556,4.95725 -10.63056,20.08639 -0.40192,0.86314 -0.73076,1.67964 -0.73076,1.81448 0,0.86848 4.5732,7.51184 7.21302,10.47817 4.50154,5.05827 9.58003,7.88069 16.03979,8.91427 2.54343,0.40695 8.05741,0.24267 10.74997,-0.32029 z m -65.8372,-2.70229 c 4.90451,-1.14085 9.30329,-4.05054 12.19112,-8.0641 2.04041,-2.83581 5.66021,-10.07357 7.81699,-15.62999 l 0.80674,-2.07839 -1.42448,-2.33764 c -5.83747,-9.57955 -12.28195,-13.50145 -22.18566,-13.50145 -3.34734,0 -5.67768,0.35037 -8.38671,1.26092 -4.8911,1.64399 -8.871548,4.83869 -11.227123,9.01089 -1.778038,3.14925 -2.23152,4.90619 -2.379768,9.22004 -0.147559,4.2941 0.237929,6.84626 1.502966,9.95041 2.41064,5.91525 8.012375,10.63025 14.468615,12.17826 2.28257,0.5473 6.4442,0.54307 8.81731,-0.009 z"
           id="path278" />
        <path
           style="fill:#f2a367;stroke-width:0.213982"
           d="m 48.241252,242.81936 c -2.156514,-1.99791 -20.185505,-18.58283 -26.167201,-24.0713 -3.220119,-2.95459 -6.143545,-5.64945 -6.496502,-5.98857 -0.352955,-0.33911 -0.741079,-0.61657 -0.862492,-0.61657 -0.121413,0 -0.692924,0.3263 -1.27002,0.72509 -0.577095,0.3988 -2.266622,1.53205 -3.7545012,2.51832 l -2.7052319,1.79324 -1.1511178,-0.9091 -1.1511161,-0.9091 5.76811,-4.18715 5.76811,-4.18714 1.300447,1.09295 c 1.169337,0.98277 8.183736,7.33765 22.214952,20.12621 2.681666,2.44417 4.910987,4.41569 4.954051,4.38115 0.106173,-0.0851 -0.98555,-8.82261 -2.410825,-19.29482 -0.375406,-2.75829 -0.494632,-3.65947 -2.154751,-16.28672 -0.588839,-4.47884 -1.126255,-8.53135 -1.194259,-9.00559 -0.068,-0.47422 -0.282061,-2.06938 -0.47568,-3.54475 -0.19362,-1.47539 -0.618518,-4.70879 -0.94422,-7.18533 -0.325698,-2.47652 -0.623764,-4.83916 -0.662362,-5.25028 l -0.07019,-0.74749 1.548465,-0.33986 c 0.851658,-0.18693 1.562526,-0.32479 1.579713,-0.30636 0.01718,0.0185 0.588237,4.25847 1.269002,9.42231 0.680768,5.16385 1.39075,10.50973 1.577739,11.87974 0.186989,1.36999 0.884426,6.62964 1.54986,11.68811 0.665433,5.05845 1.740445,13.1635 2.388913,18.01119 0.648468,4.84768 1.294185,9.71933 1.434926,10.82587 0.140739,1.10654 0.528063,4.01661 0.860717,6.46681 0.332653,2.45021 0.570057,4.57894 0.527567,4.73051 -0.04808,0.1715 -0.528571,-0.14253 -1.272109,-0.83137 z"
           id="path276" />
        <path
           style="fill:#926cd9;stroke-width:0.254859"
           d="m 57.153484,217.55744 c -6.327947,-1.42782 -9.045683,-7.43575 -5.878912,-12.99615 1.450787,-2.54737 3.848857,-3.78595 6.842519,-3.53408 2.896965,0.24373 4.459888,1.41128 6.841601,5.11088 1.192575,1.85246 3.175469,2.46677 4.601909,1.42569 1.598647,-1.16677 2.400837,-3.86792 4.002966,-13.47891 2.926834,-17.55773 9.575096,-45.24497 14.678006,-61.12776 C 101.42408,91.926585 101.30613,92.2646 104.5202,86.305726 c 3.38363,-6.273262 6.67058,-10.014773 10.20804,-11.61975 2.83236,-1.285067 4.89398,-1.704219 7.7654,-1.57879 1.90083,0.08303 2.6993,0.240773 3.88119,0.766754 3.44855,1.534721 5.78803,4.637363 5.78803,7.676154 0,5.00734 -4.953,8.859899 -9.55167,7.42951 -1.243,-0.386633 -2.854,-1.55593 -3.94817,-2.865682 -2.75192,-3.294116 -3.75722,-3.857599 -5.4821,-3.072792 -1.1958,0.544082 -2.0187,1.634753 -2.5764,3.414776 -0.50656,1.616778 -2.36831,10.373331 -3.70164,17.410274 -3.48994,18.41898 -7.403236,35.07292 -10.894138,46.36253 -4.342735,14.04445 -11.823414,37.25458 -13.501954,41.89222 -4.118269,11.37836 -8.3307,18.75041 -12.684385,22.19858 -3.953504,3.13123 -8.261786,4.23234 -12.668919,3.23793 z"
           id="path270" />
        <path
           style="fill:#ee7566;stroke-width:0.211831"
           d="m 63.246729,219.06729 c 0.01055,-0.23771 0.06266,-0.28606 0.132863,-0.12329 0.06353,0.1473 0.05571,0.32328 -0.01736,0.39109 -0.07308,0.0678 -0.125052,-0.0528 -0.115503,-0.2678 z M 141.62872,183.3752 c -6.56602,-0.9828 -12.39721,-4.02792 -18.51513,-9.6688 -5.81416,-5.36083 -10.1413,-11.2498 -11.78608,-16.04018 -1.05229,-3.06474 -1.14713,-3.70542 -1.13267,-7.65175 0.0163,-4.44557 0.31759,-5.77497 2.05802,-9.08007 2.11293,-4.0125 5.27583,-7.46959 12.1126,-13.23924 1.87478,-1.58214 3.45816,-2.92613 3.51863,-2.98663 0.092,-0.092 2.67994,-2.26617 10.13456,-8.51395 l 1.03369,-0.86635 2.56871,2.58021 c 2.46161,2.47263 2.552,2.59478 2.16785,2.9295 -0.22048,0.1921 -1.43996,1.21504 -2.70996,2.27317 -15.29786,12.74591 -18.44072,15.54891 -20.43107,18.22166 -4.4793,6.01506 -3.67783,12.34967 2.56505,20.27353 l 1.17511,1.49153 1.79893,-1.49153 c 4.4273,-3.67074 19.81606,-16.58458 21.81926,-18.31014 0.60477,-0.52095 3.11633,-2.63698 5.58126,-4.70231 l 4.48168,-3.75511 2.49055,2.43569 c 1.36979,1.33962 2.49506,2.52786 2.50059,2.64051 0.006,0.11265 -1.74386,1.67361 -3.88752,3.46879 -3.71837,3.11392 -12.26505,10.30439 -24.0865,20.26438 -2.99358,2.52221 -5.44288,4.65686 -5.44288,4.74369 0,0.0868 0.71748,0.76676 1.59438,1.51098 2.93905,2.4943 7.19533,4.91244 10.06107,5.71602 1.91426,0.53679 5.32341,0.63602 7.36587,0.2144 3.13264,-0.64665 7.17624,-2.90269 11.23245,-6.26687 1.48201,-1.22917 13.7991,-11.59853 16.3884,-13.79686 l 1.22993,-1.04423 2.4116,2.3887 c 1.32638,1.31379 2.47922,2.49354 2.56186,2.62168 0.0899,0.13939 -0.887,1.0906 -2.432,2.36801 -1.42024,1.17426 -5.60058,4.68092 -9.28963,7.79257 -7.14597,6.02748 -9.62625,7.96648 -12.40466,9.69755 -2.30567,1.43652 -5.80542,2.9694 -7.95647,3.4849 -2.31394,0.55454 -6.18102,0.68519 -8.77748,0.29655 z"
           id="path268" />
        <path
           style="fill:#6dc382;stroke-width:0.223338"
           d="m 175.26887,151.35964 c -1.69046,-0.55742 -3.1029,-1.97494 -3.62349,-3.6365 -0.65849,-2.10166 -0.3588,-4.27115 1.16934,-8.46526 2.08917,-5.73389 2.86785,-9.9851 2.57547,-14.06068 -0.26098,-3.63795 -1.95892,-12.35773 -4.62894,-23.77197 -0.67812,-2.898884 -1.47197,-6.363874 -1.76415,-7.699954 l -0.53123,-2.429265 -0.71402,0.14494 c -1.58225,0.32118 -5.65932,1.67852 -7.19561,2.395565 -7.01644,3.27486 -9.59067,6.554424 -10.595,13.497984 l -0.29307,2.02618 -0.94512,0.33489 c -0.51981,0.1842 -1.05862,0.3349 -1.19736,0.3349 -0.459,0 -0.89259,-4.04835 -0.86406,-8.0674 0.0243,-3.422274 0.0968,-4.115884 0.62359,-5.967454 1.12582,-3.956855 3.38388,-6.926265 6.74522,-8.870125 2.13249,-1.23322 6.53029,-3.16844 11.30825,-4.97611 3.12364,-1.18178 22.03827,-7.70399 35.31885,-12.178784 1.78533,-0.60155 4.73458,-1.652357 6.5539,-2.335125 l 3.30785,-1.241396 0.37071,0.665157 c 0.2039,0.365836 1.0211,2.438548 1.81602,4.606028 l 1.44529,3.94087 -4.19642,1.27521 c -4.01772,1.22091 -11.13491,3.69599 -11.43882,3.97798 -0.1887,0.17508 0.13729,1.72416 1.94702,9.25198 4.80023,19.967269 8.56113,29.448689 13.32304,33.588089 1.55556,1.3522 2.52357,1.90027 4.12912,2.33781 3.58743,0.9777 7.31708,-0.24678 9.84143,-3.23099 1.00533,-1.18847 2.77025,-4.26995 3.06076,-5.34402 0.15319,-0.56627 0.59855,-0.6766 1.6629,-0.41193 0.47465,0.11802 0.52163,0.25842 0.52091,1.55676 -0.003,4.07934 -1.04444,9.89825 -2.18781,12.2155 -1.23735,2.5077 -4.58494,4.83444 -7.83816,5.44791 -1.68337,0.31744 -4.27003,0.31528 -5.5505,-0.005 -8.46368,-2.11459 -15.06993,-13.61841 -19.52647,-34.00248 -1.25251,-5.728944 -3.38506,-18.224399 -3.38506,-19.834379 0,-0.3235 -1.41348,0.074 -4.98499,1.40179 -1.91285,0.71115 -4.99079,1.76666 -6.83988,2.34558 -1.84908,0.57891 -4.77052,1.59574 -6.49208,2.25963 -1.72156,0.66388 -3.30175,1.26844 -3.51154,1.34344 -0.33893,0.12119 -0.26851,0.50793 0.632,3.47091 5.59358,18.404639 10.46344,36.572569 11.82139,44.101819 0.93775,5.19944 0.60541,8.78075 -1.03491,11.15255 -1.86428,2.6956 -5.62856,3.9121 -8.83437,2.855 z"
           id="path264" />
      </g>
    </g>
  </g>
</svg>
